# xmcd
#
# Track frame offsets:
#	150
#	20856
#	35972
#	47923
#	55852
#	73650
#	89226
#	107103
#	113912
#	130221
#	138981
#	155667
#	162898
#	183403
#	195600
#	209473
#
# Disc length: 3122 seconds
#
# Revision: 2
# Processed by: cddbd v1.5.2PL0 Copyright (c) Steve Scherf et al.
# Submitted via: audiograbber 1.83.01
#
DISCID=f90c3010
DTITLE=Krayzie Bone - Gemini: Good vs Evil
DYEAR=2005
DGENRE=Rap
TTITLE0=Krayzie Bone - Get'chu Twisted
TTITLE1=Krayzie Bone, Wish bone - That's That Bone
TTITLE2=Krayzie Bone - Put It On Y'all
TTITLE3=Krayzie Bone - Interlude
TTITLE4=Krayzie Bone - Nuthin' But Music
TTITLE5=Krayzie Bone - All I'm Hearing
TTITLE6=Krayzie Bone - Let's Live
TTITLE7=Krayzie Bone - Chaos Interlude
TTITLE8=Krayzie Bone - Don't Know Why
TTITLE9=Krayzie Bone - Mangled
TTITLE10=Krayzie Bone - Lock Down Love
TTITLE11=Krayzie Bone - Slave Skit
TTITLE12=Krayzie Bone - I Remember
TTITLE13=Krayzie Bone - Hi-D-Ho
TTITLE14=Krayzie Bone - Murda Music
TTITLE15=Krayzie Bone, Wish Bone, Lazie Bone, Bizzy Bone - Get'chu Twisted (Rem
TTITLE15=ix)
EXTD=www.RapMusicGuide.com
EXTT0=
EXTT1=
EXTT2=
EXTT3=
EXTT4=
EXTT5=
EXTT6=
EXTT7=
EXTT8=
EXTT9=
EXTT10=
EXTT11=
EXTT12=
EXTT13=
EXTT14=
EXTT15=
PLAYORDER=
